<svg xmlns="http://www.w3.org/2000/svg" width="87.526" height="107.193" viewBox="0 0 87.526 107.193">
  <g id="Group_2" data-name="Group 2" transform="translate(0.001 -0.001)">
    <path id="Path_12" data-name="Path 12" d="M58.984,2.714c.041-.7-.482-1.39-1.477-1.938A7.882,7.882,0,0,0,53.795,0H23.631a7.869,7.869,0,0,0-3.605.8c-.98.552-1.5,1.236-1.477,1.938s-.5,1.386-1.477,1.938a7.539,7.539,0,0,1-3.6.814C10.4,5.636,8.156,6.84,8.422,8.2v2.714c-.215,1.348,2.04,2.526,5.082,2.655H63.958a7.536,7.536,0,0,0,3.6-.8c.98-.552,1.5-1.236,1.477-1.938V8.161c.024-.7-.5-1.386-1.477-1.938a7.536,7.536,0,0,0-3.6-.8,7.539,7.539,0,0,1-3.6-.814c-1.007-.547-1.543-1.233-1.515-1.938Z" transform="translate(4.99 0.001)" fill="#fff"/>
    <path id="Path_13" data-name="Path 13" d="M15.194,2.867H10.935C4.91,2.854.015,7.388,0,13v81.42a9.794,9.794,0,0,0,3.195,7.2,11.307,11.307,0,0,0,7.739,2.973H76.511A11.226,11.226,0,0,0,84.3,101.62a9.842,9.842,0,0,0,3.221-7.253V13A9.819,9.819,0,0,0,84.3,5.743,11.226,11.226,0,0,0,76.511,2.77H72.252a9.726,9.726,0,0,1,.623,3.385V9.542c-.013,5.613-4.9,10.161-10.934,10.175H25.582A11.32,11.32,0,0,1,17.83,16.8a9.808,9.808,0,0,1-3.26-7.167V6.251a9.726,9.726,0,0,1,.623-3.385Zm49.319,46.4L42.645,69.594a3.93,3.93,0,0,1-4,.748,3.628,3.628,0,0,1-1.169-.748L26.542,59.416a3.8,3.8,0,0,1-.805-1.088,3.178,3.178,0,0,1-.259-1.306,3.269,3.269,0,0,1,.259-1.306,3.8,3.8,0,0,1,.805-1.088,3.687,3.687,0,0,1,2.6-.992,3.874,3.874,0,0,1,1.4.242,3.765,3.765,0,0,1,1.195.748l8.337,7.784,19.27-17.96a3.9,3.9,0,0,1,2.6-1c2.215.182,3.832,1.687,3.637,3.385a3.38,3.38,0,0,1-1.064,2.417Z" transform="translate(0 2.6)" fill="#fff"/>
  </g>
</svg>
